<?xml version="1.0" encoding="UTF-8"?>
<svg id="Capa_1" xmlns="http://www.w3.org/2000/svg" version="1.1" viewBox="0 0 1400 600">
  <!-- Generator: Adobe Illustrator 29.8.2, SVG Export Plug-In . SVG Version: 2.1.1 Build 3)  -->
  <defs>
    <style>
      .st0 {
        isolation: isolate;
      }

      .st1 {
        fill: #ad4032;
      }

      .st2 {
        fill: #c2523e;
      }

      .st3 {
        fill: #e7872c;
      }
    </style>
  </defs>
  <g class="st0">
    <path class="st3" d="M654.2,28.85l2.27,57.03h-4.32c-6.67-20.15-12.58-33.89-17.72-41.24-5.15-7.35-12.58-11.02-22.27-11.02h-2.73v149.52h19.31v4.77h-82.94v-4.77h19.31V33.62h-2.95c-9.7,0-17.19,3.83-22.5,11.48-5.3,7.65-11.13,21.25-17.5,40.79h-4.32l2.27-57.03h134.06Z"/>
    <path class="st3" d="M797.81,187.91h-51.81l-2.5-16.59c-2.42,6.06-6.02,10.72-10.79,13.97-4.77,3.26-11.85,4.89-21.25,4.89-23.48,0-35.22-12.65-35.22-37.95v-68.4h-12.73v-4.09h54.99v77.94c0,9.09.64,15.08,1.93,17.95,1.29,2.88,3.86,4.32,7.73,4.32s7.31-2.35,10.34-7.04c3.03-4.69,4.54-11.21,4.54-19.54v-69.53h-10.45v-4.09h52.72v104.07h12.5v4.09Z"/>
  </g>
  <g class="st0">
    <path class="st2" d="M607.84,365.07l-16.59-49.08h-44.99l-17.5,49.08h17.04v4.32h-34.77v-4.32h10.68l57.94-156.11h18.63l57.26,156.11h10.45v4.32h-74.3v-4.32h16.13ZM569.67,251.46l-21.36,59.53h41.13l-19.77-59.53Z"/>
    <path class="st2" d="M674.87,371.66v-40.67h2.73c3.94,13.18,9.24,22.42,15.91,27.72,6.66,5.3,15,7.95,25,7.95,15.45,0,23.18-4.92,23.18-14.77,0-4.24-1.9-7.42-5.68-9.54-5.91-3.33-13.48-5.91-22.72-7.73-10.3-2.73-18.94-6.36-25.9-10.91-8.33-5.45-12.5-14.09-12.5-25.9s3.64-21.25,10.91-28.29c7.27-7.04,16.96-10.57,29.08-10.57,7.42,0,15.07,1.74,22.95,5.23,2.88,1.21,5.07,1.82,6.59,1.82s2.8-.53,3.86-1.59c1.06-1.06,2.35-3.03,3.86-5.91h2.5v34.77h-2.73c-7.73-19.69-19.69-29.54-35.9-29.54-7.12,0-12.42,1.25-15.91,3.75-3.49,2.5-5.23,5.65-5.23,9.43,0,2.27.53,4.05,1.59,5.34,1.06,1.29,1.89,2.24,2.5,2.84.6.61,1.59,1.25,2.95,1.93s2.5,1.21,3.41,1.59c.91.38,2.31.87,4.2,1.48,1.89.61,3.29.99,4.2,1.14,10.3,2.58,17.72,4.81,22.27,6.7,4.54,1.9,8.86,4.2,12.95,6.93,8.33,5.76,12.5,15.04,12.5,27.84s-3.79,22.5-11.36,29.08c-7.58,6.59-17.95,9.88-31.13,9.88-9.39,0-18.48-2.2-27.27-6.59-1.82-1.21-3.26-1.82-4.32-1.82-3.33,0-6.59,2.8-9.77,8.41h-2.73Z"/>
    <path class="st2" d="M784.05,356.55c-9.77-10.07-14.66-24.09-14.66-42.04s5.49-31.7,16.47-41.24c10.98-9.54,24.96-14.32,41.92-14.32,34.39,0,50.9,17.27,49.54,51.81h-64.08v8.86c0,14.85,1.89,26.06,5.68,33.63,3.78,7.58,10.37,11.36,19.77,11.36,17.57,0,29.08-9.39,34.54-28.18l4.09.68c-2.88,10.91-8.07,19.39-15.57,25.45-7.5,6.06-18.75,9.09-33.74,9.09-19.54,0-34.2-5.04-43.97-15.11ZM813.48,306.22h23.41v-11.13c0-12.27-.72-20.64-2.16-25.11-1.44-4.47-4.32-6.7-8.63-6.7s-7.5,2.39-9.54,7.16c-2.04,4.77-3.07,12.99-3.07,24.65v11.13Z"/>
    <path class="st2" d="M888.46,371.66v-40.67h2.73c3.94,13.18,9.24,22.42,15.91,27.72,6.67,5.3,15,7.95,25,7.95,15.45,0,23.18-4.92,23.18-14.77,0-4.24-1.9-7.42-5.68-9.54-5.91-3.33-13.48-5.91-22.72-7.73-10.3-2.73-18.94-6.36-25.9-10.91-8.33-5.45-12.5-14.09-12.5-25.9s3.64-21.25,10.91-28.29c7.27-7.04,16.96-10.57,29.08-10.57,7.42,0,15.07,1.74,22.95,5.23,2.88,1.21,5.07,1.82,6.59,1.82s2.8-.53,3.86-1.59c1.06-1.06,2.35-3.03,3.86-5.91h2.5v34.77h-2.73c-7.73-19.69-19.69-29.54-35.9-29.54-7.12,0-12.42,1.25-15.91,3.75-3.49,2.5-5.23,5.65-5.23,9.43,0,2.27.53,4.05,1.59,5.34,1.06,1.29,1.89,2.24,2.5,2.84.6.61,1.59,1.25,2.95,1.93s2.5,1.21,3.41,1.59c.91.38,2.31.87,4.2,1.48,1.89.61,3.29.99,4.2,1.14,10.3,2.58,17.72,4.81,22.27,6.7,4.54,1.9,8.86,4.2,12.95,6.93,8.33,5.76,12.5,15.04,12.5,27.84s-3.79,22.5-11.36,29.08c-7.58,6.59-17.95,9.88-31.13,9.88-9.39,0-18.48-2.2-27.27-6.59-1.82-1.21-3.26-1.82-4.32-1.82-3.33,0-6.59,2.8-9.77,8.41h-2.73Z"/>
    <path class="st2" d="M998.21,357.12c-9.7-9.69-14.54-23.59-14.54-41.7s5.19-32.04,15.57-41.81c10.37-9.77,24.96-14.66,43.74-14.66s32.8,4.51,42.04,13.52c9.24,9.01,13.86,22.76,13.86,41.24,0,38.63-19.24,57.94-57.72,57.94-18.94,0-33.25-4.85-42.95-14.54ZM1055.25,324.63v-19.31c0-14.69-.79-25.41-2.39-32.15-1.59-6.74-5.27-10.11-11.02-10.11-3.33,0-6.02.95-8.07,2.84-2.05,1.9-3.52,5.04-4.43,9.43-1.36,6.82-2.04,17.19-2.04,31.13v17.72c0,16.51.49,26.44,1.48,29.77.98,3.33,2.01,6.06,3.07,8.18,1.67,3.64,4.92,5.45,9.77,5.45,5.91,0,9.77-3.41,11.59-10.23,1.36-4.85,2.04-15.75,2.04-32.72Z"/>
    <path class="st2" d="M1181.13,267.59c-5.61,0-10.53,3.64-14.77,10.91-4.24,7.27-6.36,15.91-6.36,25.9v60.9h16.13v4.09h-70.9v-4.09h12.5v-99.98h-12.5v-4.09h54.76v21.81c1.97-7.73,5.76-13.67,11.36-17.84,5.6-4.16,11.96-6.25,19.09-6.25s12.91,2.01,17.38,6.02c4.47,4.02,6.7,9.7,6.7,17.04s-1.67,12.99-5,16.93c-3.33,3.94-8.45,5.91-15.34,5.91s-11.97-2.27-15.22-6.82c-3.26-4.54-3.67-10.83-1.25-18.86h8.18c3.78-7.73,2.19-11.59-4.77-11.59Z"/>
  </g>
  <g class="st0">
    <path class="st1" d="M589.21,577.21l-2.5-15.91c-5.15,12.12-15.6,18.18-31.36,18.18-13.03,0-23.14-4.69-30.33-14.09-7.2-9.39-10.79-23.41-10.79-42.04,0-37.72,15-56.58,44.99-56.58,13.33,0,22.12,3.71,26.36,11.13v-67.03h-13.86v-4.09h56.81v166.33h11.13v4.09h-50.44ZM560.58,561.87c1.67,5.23,4.73,7.84,9.2,7.84s8.33-1.97,11.59-5.91c3.26-3.94,4.89-9.77,4.89-17.5v-49.54c0-6.51-1.29-12.04-3.86-16.59-2.58-4.54-6.36-6.82-11.36-6.82s-8.41,3.33-10.23,10c-1.82,6.67-2.73,18.33-2.73,34.99v11.82c0,15.91.83,26.47,2.5,31.7Z"/>
    <path class="st1" d="M661.35,564.37c-9.77-10.07-14.66-24.09-14.66-42.04s5.49-31.7,16.47-41.24c10.98-9.54,24.96-14.32,41.92-14.32,34.39,0,50.9,17.27,49.54,51.81h-64.08v8.86c0,14.85,1.89,26.06,5.68,33.63,3.78,7.58,10.37,11.36,19.77,11.36,17.57,0,29.08-9.39,34.54-28.18l4.09.68c-2.88,10.91-8.07,19.39-15.57,25.45-7.5,6.06-18.75,9.09-33.74,9.09-19.54,0-34.2-5.04-43.97-15.11ZM690.78,514.04h23.4v-11.13c0-12.27-.72-20.64-2.16-25.11-1.44-4.47-4.32-6.7-8.63-6.7s-7.5,2.39-9.54,7.16c-2.04,4.77-3.07,12.99-3.07,24.65v11.13Z"/>
    <path class="st1" d="M925.96,418.15h60.67v4.32h-12.5v150.42h12.5v4.32h-69.3v-4.32h12.5v-142.02h-.91l-34.08,146.33h-28.4l-39.99-147.02h-.91v142.7h12.5v4.32h-30.9v-4.32h12.5v-150.42h-12.5v-4.32h61.35l30.22,117.02,27.27-117.02Z"/>
    <path class="st1" d="M1010.94,564.94c-9.7-9.69-14.54-23.59-14.54-41.7s5.19-32.04,15.57-41.81c10.37-9.77,24.96-14.66,43.74-14.66s32.8,4.51,42.04,13.52c9.24,9.01,13.86,22.76,13.86,41.24,0,38.63-19.24,57.94-57.72,57.94-18.94,0-33.25-4.85-42.95-14.54ZM1067.97,532.45v-19.31c0-14.69-.79-25.41-2.39-32.15-1.59-6.74-5.27-10.11-11.02-10.11-3.33,0-6.02.95-8.07,2.84-2.05,1.9-3.52,5.04-4.43,9.43-1.36,6.82-2.04,17.19-2.04,31.13v17.72c0,16.51.49,26.44,1.48,29.77.98,3.33,2.01,6.06,3.07,8.18,1.67,3.64,4.92,5.45,9.77,5.45,5.91,0,9.77-3.41,11.59-10.23,1.36-4.85,2.04-15.75,2.04-32.72Z"/>
    <path class="st1" d="M1195.22,577.21l-2.5-15.91c-5.15,12.12-15.6,18.18-31.36,18.18-13.03,0-23.14-4.69-30.33-14.09-7.2-9.39-10.79-23.41-10.79-42.04,0-37.72,15-56.58,44.99-56.58,13.33,0,22.12,3.71,26.36,11.13v-67.03h-13.86v-4.09h56.81v166.33h11.13v4.09h-50.44ZM1166.59,561.87c1.67,5.23,4.73,7.84,9.2,7.84s8.33-1.97,11.59-5.91c3.26-3.94,4.89-9.77,4.89-17.5v-49.54c0-6.51-1.29-12.04-3.86-16.59-2.58-4.54-6.36-6.82-11.36-6.82s-8.41,3.33-10.23,10c-1.82,6.67-2.73,18.33-2.73,34.99v11.82c0,15.91.83,26.47,2.5,31.7Z"/>
    <path class="st1" d="M1306.11,523.81h6.59v-17.5c0-14.39-.79-24.05-2.39-28.97-1.59-4.92-4.66-7.38-9.2-7.38-2.73,0-5.19.72-7.38,2.16-2.2,1.44-3.29,3.41-3.29,5.91s.46,5.04,1.36,7.61h5.68c1.21,3.18,1.82,7.01,1.82,11.48s-1.9,8.33-5.68,11.59c-3.79,3.26-8.56,4.89-14.32,4.89-13.03,0-19.54-6.28-19.54-18.86,0-18.63,15.83-27.95,47.49-27.95,18.03,0,30.48,3.07,37.38,9.2,6.89,6.14,10.34,17.38,10.34,33.74v46.13c0,7.88,2.19,11.82,6.59,11.82,5.15,0,8.18-7.8,9.09-23.4l3.41.23c-.61,13.33-3.11,22.5-7.5,27.49-4.4,5-11.59,7.5-21.59,7.5-18.18,0-28.63-5.6-31.36-16.82-1.97,5.76-4.92,10-8.86,12.73-3.94,2.73-9.7,4.09-17.27,4.09-22.42,0-33.63-9.16-33.63-27.5,0-10.75,4.28-18.14,12.84-22.15,8.56-4.01,21.7-6.02,39.42-6.02ZM1298.27,566.98c.83,2.27,2.42,3.41,4.77,3.41s4.54-1.93,6.59-5.79c2.04-3.86,3.07-9.2,3.07-16.02v-21.13h-1.59c-9.39,0-14.09,6.89-14.09,20.68v3.64c0,7.88.42,12.95,1.25,15.22Z"/>
  </g>
  <g>
    <path class="st2" d="M25.65,29.63h383.1v549.53H25.65V29.63ZM403.18,35.19H31.22v538.4h371.96V35.19h-.01Z"/>
    <rect class="st2" x="214.42" y="32.41" width="5.56" height="543.96"/>
    <path class="st2" d="M311.18,239.63c31.84,0,43.12,33.15,54.03,65.22,9.6,28.2,18.62,54.74,40.68,54.21l.15,5.56c-25.99.78-36.27-29.11-46.11-57.97-10.28-30.21-20.92-61.44-48.77-61.44h-.08c-19.57.05-35.42,34.16-49.4,64.26-13.86,29.82-26.94,57.99-44.37,57.99h-.13c-16.91-.14-25.72-23.57-35.93-50.68-12.64-33.55-26.95-71.57-58.93-71.57-25.72,0-40.63,37.77-53.77,71.1-12.03,30.51-22.43,56.84-40.11,56.84v-5.56c13.9,0,24.11-25.9,34.93-53.32,13.8-34.98,29.44-74.63,58.95-74.63,35.83,0,50.87,39.94,64.14,75.19,9.09,24.15,17.69,46.97,30.77,47.08h.08c13.89,0,26.82-27.85,39.32-54.77,15.4-33.15,31.32-67.44,54.44-67.49h.11Z"/>
    <path class="st2" d="M122.32,445.63c35.83,0,50.87,39.94,64.14,75.19,9.09,24.16,17.69,46.98,30.77,47.08h.08c13.89,0,26.82-27.85,39.32-54.77,15.4-33.15,31.32-67.44,54.44-67.49h.11c31.84,0,43.12,33.15,54.03,65.22,9.6,28.2,18.62,54.79,40.68,54.21l.15,5.56c-.32,0-.64.01-.95.01-25.41,0-35.44-29.47-45.15-57.99-10.28-30.21-20.92-61.44-48.77-61.44h-.08c-19.57.05-35.42,34.16-49.4,64.26-13.86,29.83-26.94,57.99-44.37,57.99h-.13c-16.91-.14-25.72-23.57-35.93-50.68-12.64-33.55-26.95-71.57-58.93-71.57-25.72,0-40.63,37.77-53.77,71.1-12.03,30.51-22.43,56.84-40.11,56.84v-5.56c13.9,0,24.11-25.9,34.93-53.32,13.8-34.98,29.44-74.63,58.95-74.63h0Z"/>
    <path class="st2" d="M311.18,33.62c31.84,0,43.12,33.15,54.03,65.21,9.6,28.2,18.62,54.91,40.68,54.21l.15,5.56h-.95c-25.41,0-35.44-29.48-45.15-57.99-10.28-30.21-20.92-61.44-48.77-61.44h-.08c-19.57.05-35.42,34.17-49.4,64.26-13.89,29.9-27.01,58.28-44.51,57.99-16.91-.14-25.72-23.57-35.93-50.68-12.64-33.55-26.95-71.57-58.93-71.57-25.72,0-40.63,37.77-53.77,71.1-12.03,30.51-22.43,56.84-40.11,56.84v-5.56c13.9,0,24.11-25.9,34.93-53.32,13.8-34.98,29.44-74.63,58.95-74.63,35.83,0,50.87,39.94,64.14,75.19,9.09,24.15,17.69,46.97,30.77,47.08h.08c13.89,0,26.82-27.85,39.32-54.77,15.4-33.15,31.32-67.44,54.44-67.49h.11v.02Z"/>
  </g>
</svg>