<?xml version="1.0" encoding="UTF-8"?>
<svg id="Capa_1" xmlns="http://www.w3.org/2000/svg" version="1.1" viewBox="0 0 1366 617.75">
  <!-- Generator: Adobe Illustrator 29.8.2, SVG Export Plug-In . SVG Version: 2.1.1 Build 3)  -->
  <defs>
    <style>
      .st0 {
        fill: #e7872c;
      }

      .st0, .st1 {
        font-family: AbrilFatface-Regular, 'Abril Fatface';
        font-size: 221.38px;
      }

      .st2 {
        fill: #ad4032;
      }

      .st3 {
        fill: #c2523e;
      }
    </style>
  </defs>
  <text class="st0" transform="translate(503.37 193.54)"><tspan x="0" y="0">Tu</tspan></text>
  <text class="st1" transform="translate(503.37 370.35)"><tspan class="st3"><tspan x="0" y="0">Asesor</tspan></tspan><tspan class="st2"><tspan x="0" y="202.47">de Moda</tspan></tspan></text>
  <g>
    <path class="st3" d="M31.8,39.33h373.24v535.39H31.8V39.33ZM399.61,44.75H37.23v524.54h362.39V44.75Z"/>
    <rect class="st3" x="215.71" y="42.04" width="5.42" height="529.96"/>
    <path class="st3" d="M309.98,243.93c31.02,0,42.01,32.3,52.64,63.54,9.35,27.47,18.14,53.33,39.63,52.81l.15,5.42c-25.32.76-35.34-28.36-44.92-56.48-10.02-29.43-20.38-59.86-47.51-59.86h-.08c-19.07.05-34.51,33.28-48.13,62.61-13.5,29.05-26.25,56.5-43.23,56.5h-.13c-16.47-.14-25.06-22.96-35.01-49.38-12.31-32.69-26.26-69.73-57.41-69.73-25.06,0-39.58,36.8-52.39,69.27-11.72,29.72-21.85,55.38-39.08,55.38v-5.42c13.54,0,23.49-25.23,34.03-51.95,13.44-34.08,28.68-72.71,57.43-72.71,34.91,0,49.56,38.91,62.49,73.25,8.86,23.53,17.23,45.76,29.98,45.87h.08c13.53,0,26.13-27.13,38.31-53.36,15-32.3,30.51-65.7,53.04-65.75h.11Z"/>
    <path class="st3" d="M125.98,444.63c34.91,0,49.56,38.91,62.49,73.25,8.86,23.54,17.23,45.77,29.98,45.87h.08c13.53,0,26.13-27.13,38.31-53.36,15-32.3,30.51-65.7,53.04-65.75h.11c31.02,0,42.01,32.3,52.64,63.54,9.35,27.47,18.14,53.38,39.63,52.81l.15,5.42c-.31,0-.62.01-.93.01-24.76,0-34.53-28.71-43.99-56.5-10.02-29.43-20.38-59.86-47.51-59.86h-.08c-19.07.05-34.51,33.28-48.13,62.61-13.5,29.06-26.25,56.5-43.23,56.5h-.13c-16.47-.14-25.06-22.96-35.01-49.38-12.31-32.69-26.26-69.73-57.41-69.73-25.06,0-39.58,36.8-52.39,69.27-11.72,29.72-21.85,55.38-39.08,55.38v-5.42c13.54,0,23.49-25.23,34.03-51.95,13.44-34.08,28.68-72.71,57.43-72.71Z"/>
    <path class="st3" d="M309.98,43.22c31.02,0,42.01,32.3,52.64,63.53,9.35,27.47,18.14,53.5,39.63,52.81l.15,5.42c-.31,0-.62.01-.93.01-24.76,0-34.53-28.72-43.99-56.5-10.02-29.43-20.38-59.86-47.51-59.86h-.08c-19.07.05-34.51,33.29-48.13,62.61-13.53,29.13-26.31,56.78-43.36,56.5-16.47-.14-25.06-22.96-35.01-49.38-12.31-32.69-26.26-69.73-57.41-69.73-25.06,0-39.58,36.8-52.39,69.27-11.72,29.72-21.85,55.38-39.08,55.38v-5.42c13.54,0,23.49-25.23,34.03-51.95,13.44-34.08,28.68-72.71,57.43-72.71,34.91,0,49.56,38.91,62.49,73.25,8.86,23.53,17.23,45.76,29.98,45.87h.08c13.53,0,26.13-27.13,38.31-53.36,15-32.3,30.51-65.7,53.04-65.75h.11Z"/>
  </g>
</svg>